<svg id="Layer_3" data-name="Layer 3" xmlns="http://www.w3.org/2000/svg" viewBox="0 0 566.64 181.28"><defs><style>.cls-1{fill:#231f20;}.cls-2{fill:#37b34a;}</style></defs><title>website_logo</title><path class="cls-1" d="M381.72,290.67l-7.49,15.54C366,301.4,355.56,298,349.18,298c-5.14,0-8.61,1.9-8.61,5.71,0,13.52,41.37,5.81,41.37,34.1,0,15.65-13.86,23.92-31.3,23.92a58.38,58.38,0,0,1-35.78-12.52l7.71-15.32c8.05,7.05,20.13,11.74,28.29,11.74,6.26,0,10.17-2.35,10.17-6.82,0-13.86-41.36-5.59-41.36-33.31,0-14.43,12.41-23.6,31.19-23.6C362.15,281.94,373.67,285.41,381.72,290.67Z" transform="translate(-314.86 -281.94)"/><path class="cls-1" d="M465.68,361.1l-.11-50.87-18.78,43h-13l-18.78-43V361.1H397.26V282.73h21.8l21.25,46.62,21.24-46.62h21.69V361.1Z" transform="translate(-314.86 -281.94)"/><path class="cls-2" d="M521.25,346.68l-5.7,14.42H495.09l33.77-78.26h20.46l33,78.26H561.06l-5.59-14.42Zm17.22-44.05-11.4,28.95h22.58Z" transform="translate(-314.86 -281.94)"/><path class="cls-2" d="M629.6,339.08H613.94v22H594V282.84h35c20.68,0,32.53,9.84,32.53,27.28,0,12-5,20.57-14.2,25.15l16.44,25.83H641.22ZM629,323.42c8.61,0,13.64-4.36,13.64-12.63s-5-12.3-13.64-12.3h-15.1v24.93Z" transform="translate(-314.86 -281.94)"/><path class="cls-2" d="M715.69,298.83V361.1h-19.9V298.83H672.42v-16.1h66.86v16.1Z" transform="translate(-314.86 -281.94)"/><path class="cls-1" d="M389,396.59l-11.51,13.64c-5.14-6.26-12.75-10.17-19.68-10.17-12.41,0-21.8,9.84-21.8,22.7,0,13.08,9.39,23,21.8,23,6.6,0,14.2-3.58,19.68-9.17l11.63,12.3c-8.39,8.61-20.8,14.31-32.31,14.31-23.6,0-41.15-17.33-41.15-40.25,0-22.58,18-39.58,41.82-39.58A45.43,45.43,0,0,1,389,396.59Z" transform="translate(-314.86 -281.94)"/><path class="cls-1" d="M560.83,462.33l-.11-50.87-18.78,43.05H529l-18.78-43.05v50.87H492.41V384h21.8l21.24,46.62L556.69,384h21.69v78.37Z" transform="translate(-314.86 -281.94)"/><path class="cls-1" d="M632.73,384.07c20,0,31.52,9.84,31.52,27.28,0,18.34-11.51,29-31.52,29h-14.2v22h-19.9V384.07Zm-14.2,40.59h13.19c8.72,0,13.75-4.36,13.75-12.64s-5-12.29-13.75-12.29H618.53Z" transform="translate(-314.86 -281.94)"/><path class="cls-1" d="M679.13,462.33V384.07H699v78.26Z" transform="translate(-314.86 -281.94)"/><path class="cls-1" d="M773.83,462.33l-36-48.18v48.18H719.16V384.07h17.55l36.11,48.3v-48.3h18.56v78.26Z" transform="translate(-314.86 -281.94)"/><path class="cls-1" d="M880.71,422.53v30.52c-8.38,5.93-21.57,10.18-32.53,10.18-23.81,0-41.81-17.22-41.81-40s18.44-39.8,43.15-39.8c11.63,0,23.93,4.47,32,11.63l-11.18,13.53a32.12,32.12,0,0,0-20.91-8.5c-12.86,0-22.7,10.06-22.7,23.14,0,13.31,9.95,23.37,22.92,23.37,4,0,9.17-1.45,13.87-3.8V422.53Z" transform="translate(-314.86 -281.94)"/><polygon class="cls-2" points="122.4 129.32 132.14 180.39 168.64 180.39 122.68 93.33 75.77 180.39 112.45 180.39 122.4 129.32"/></svg>